<svg width="175" height="175" viewBox="0 0 175 175" fill="none" xmlns="http://www.w3.org/2000/svg">
<g id="logo">
<path id="Vector" d="M153.321 86.6833H21.6789C20.9245 86.6833 20.313 87.2946 20.313 88.0485C20.313 88.8025 20.9245 89.4137 21.6789 89.4137H153.321C154.075 89.4137 154.687 88.8025 154.687 88.0485C154.687 87.2946 154.075 86.6833 153.321 86.6833Z" fill="#427D9D"/>
<path id="Vector_2" d="M113.014 54.0053L89.8301 38.5421C89.4857 38.3054 89.0702 38.195 88.6537 38.2294C88.5399 38.2398 88.4275 38.262 88.3183 38.2958C88.1109 38.359 87.9051 38.4238 87.6928 38.4692L62.091 43.9299C62.091 43.9299 60.456 44.578 61.4072 46.3507L71.763 53.3734C72.0327 53.5554 72.2391 53.8168 72.3535 54.1214C72.4679 54.426 72.4846 54.7586 72.4014 55.0732C72.1664 55.9514 71.9153 57.1942 72.1016 58.0579C72.1016 58.0579 73.3979 61.5741 78.7451 63.5396C78.7451 63.5396 86.1826 66.5956 93.0563 65.612C93.3917 65.5634 93.7271 65.5245 94.0641 65.4873C94.9197 65.39 97.7278 64.5151 98.2188 60.9049C98.2512 60.683 98.3512 60.4766 98.5051 60.3137C98.6591 60.1507 98.8595 60.0392 99.0792 59.9942L105.324 58.6785C105.324 58.6785 106.659 60.5306 106.818 62.3421C106.837 62.5935 106.8 62.846 106.708 63.0808C106.616 63.3156 106.473 63.5267 106.288 63.6984C105.979 63.9933 105.64 64.4275 105.64 64.9056C105.64 64.9056 105.613 66.1468 106.126 66.7252C106.248 66.8693 106.333 67.0403 106.375 67.2241C106.418 67.4078 106.416 67.599 106.369 67.7817C105.808 70.2349 105.639 72.7617 105.869 75.2678C105.869 75.2678 105.993 78.8132 108.357 79.5861C108.573 79.6603 108.805 79.6757 109.029 79.6307C109.253 79.5857 109.461 79.4819 109.631 79.3301C109.8 79.1881 109.908 78.9859 109.931 78.7662C109.935 78.6287 109.895 78.4934 109.817 78.3801C109.739 78.2668 109.626 78.1812 109.497 78.1359C108.881 77.8815 107.309 76.0294 107.855 72.4549C107.855 72.4549 108.503 75.0815 110.461 76.4475C110.461 76.4475 112.261 76.4475 111.702 75.0199C111.702 75.0199 109.057 72.0708 108.972 68.3958C108.956 67.7688 109.149 67.1543 109.521 66.6491C110.077 65.8956 110.762 64.562 109.521 63.6741C109.343 63.5479 109.195 63.3843 109.087 63.1948C108.979 63.0052 108.915 62.7944 108.897 62.5771C108.808 61.4914 108.503 59.5065 107.465 58.2232L112.24 57.1521C112.742 57.0455 113.186 56.7568 113.488 56.3419L113.546 56.2544C113.766 55.8837 113.833 55.4421 113.734 55.0226C113.635 54.6031 113.377 54.2384 113.014 54.0053ZM89.4299 49.4683C89.3083 49.982 88.2729 50.2493 87.4854 50.0484C86.7271 49.8539 85.9461 49.1588 86.0789 48.6419C86.2118 48.125 87.1808 47.916 87.8986 48.0618C88.7185 48.2336 89.553 48.9514 89.4299 49.4732V49.4683Z" fill="#427D9D"/>
<path id="Vector_3" d="M107.855 67.5111C109.172 67.5111 110.24 66.4432 110.24 65.1259C110.24 63.8086 109.172 62.7408 107.855 62.7408C106.538 62.7408 105.47 63.8086 105.47 65.1259C105.47 66.4432 106.538 67.5111 107.855 67.5111Z" fill="#427D9D"/>
<path id="Vector_4" d="M125.616 76.6403H117.73C116.975 76.6403 116.364 77.2515 116.364 78.0054C116.364 78.7594 116.975 79.3706 117.73 79.3706H125.616C126.37 79.3706 126.982 78.7594 126.982 78.0054C126.982 77.2515 126.37 76.6403 125.616 76.6403Z" fill="#427D9D"/>
<path id="Vector_5" d="M57.2704 76.6403H49.384C48.6296 76.6403 48.0181 77.2515 48.0181 78.0054C48.0181 78.7594 48.6296 79.3706 49.384 79.3706H57.2704C58.0248 79.3706 58.6363 78.7594 58.6363 78.0054C58.6363 77.2515 58.0248 76.6403 57.2704 76.6403Z" fill="#427D9D"/>
<path id="Vector_6" d="M22.6009 122.547V99.8326C22.6115 99.4395 22.5418 99.0484 22.3961 98.6832C22.2504 98.3179 22.0317 97.9862 21.7535 97.7083C21.6632 97.6344 21.5621 97.5748 21.4537 97.5317C21.3755 97.49 21.3117 97.4256 21.2709 97.3469C21.2301 97.2682 21.2142 97.1789 21.2252 97.091C21.2252 96.8674 21.3014 96.7556 21.4537 96.7556H27.1671C27.3292 96.7556 27.3972 96.8576 27.3972 97.0634C27.3972 97.2692 27.3697 97.3875 27.3178 97.4345C27.2495 97.4841 27.1755 97.5255 27.0975 97.5576C26.9617 97.6301 26.8395 97.7255 26.7361 97.8396C26.5333 98.0798 26.3747 98.3541 26.2678 98.6498C26.1076 99.0259 26.0238 99.4303 26.0215 99.8391V122.775H37.7303C39.059 122.775 39.9232 122.623 40.3229 122.317C40.5176 122.192 40.6856 122.031 40.8171 121.841C40.9338 121.666 41.0262 121.575 41.0894 121.568C41.2109 121.574 41.3304 121.601 41.4426 121.648C41.6127 121.706 41.6986 121.759 41.6986 121.81C41.6342 122.045 41.5518 122.274 41.4523 122.497L40.8868 123.926C40.7231 124.321 40.5792 124.724 40.4558 125.133C40.378 125.41 40.2759 125.577 40.1463 125.635H21.4537C21.3014 125.635 21.2252 125.533 21.2252 125.328C21.2252 125.122 21.2512 125.003 21.3046 124.956C21.3731 124.907 21.4471 124.866 21.525 124.833C21.6609 124.761 21.7831 124.666 21.8863 124.551C22.0889 124.311 22.2469 124.037 22.353 123.741C22.5152 123.364 22.5995 122.958 22.6009 122.547Z" fill="#427D9D"/>
<path id="Vector_7" d="M46.1076 118.809C46.5762 120.149 47.4753 121.296 48.6646 122.071C49.8805 122.863 51.305 123.274 52.756 123.252C54.7005 123.252 56.4694 122.341 58.0627 120.518C58.3112 120.284 58.6758 120.408 59.1565 120.889C59.1921 120.925 59.1856 120.977 59.1387 121.051C57.7981 122.908 56.7578 124.097 56.0178 124.616C54.7455 125.515 53.2197 125.984 51.6623 125.956C50.5478 125.955 49.4452 125.728 48.4215 125.287C46.2707 124.346 44.7368 122.841 43.8197 120.773C43.3498 119.715 43.1148 118.46 43.1148 117.007C43.119 115.537 43.4982 114.093 44.2167 112.81C44.9514 111.463 46.0599 110.357 47.4088 109.626C48.8001 108.852 50.4016 108.464 52.2132 108.463C54.4234 108.463 56.3867 109.486 58.1032 111.532C58.9739 112.565 59.4093 113.388 59.4093 114L46.1076 118.809ZM55.718 113.377C55.0245 111.391 53.5257 110.397 51.2215 110.396C50.2021 110.388 49.2028 110.68 48.347 111.234C47.5057 111.76 46.8151 112.495 46.3426 113.368C45.877 114.232 45.6447 115.046 45.6458 115.809C45.6469 116.573 45.6701 116.951 45.7155 116.944L55.6792 113.47V113.364L55.718 113.377Z" fill="#427D9D"/>
<path id="Vector_8" d="M85.8796 123.623C88.537 123.623 90.9136 123.023 93.0093 121.824C95.0884 120.641 96.8602 118.985 98.1815 116.991C98.3435 116.743 98.4488 116.667 98.5266 116.761C98.6044 116.855 98.7 116.984 98.8167 117.15L99.3643 117.942C99.5393 118.237 99.6042 118.418 99.5572 118.49C98.8528 119.924 97.6716 121.328 96.0134 122.703C92.9444 125.268 89.5665 126.551 85.8796 126.551C83.81 126.565 81.7608 126.142 79.8664 125.308C78.0784 124.538 76.4691 123.406 75.1398 121.983C73.8323 120.562 72.8033 118.907 72.1065 117.106C71.3751 115.262 71.0011 113.296 71.0046 111.313C71 109.338 71.405 107.384 72.194 105.574C73.7026 102 76.5374 99.1491 80.103 97.6208C81.8388 96.8339 83.721 96.422 85.6269 96.412C87.9151 96.4293 90.1805 96.8688 92.3093 97.7083L93.1194 98.0065C93.2361 98.0551 93.4014 98.0065 93.6056 97.8655C93.8022 97.7292 94.0355 97.6558 94.2748 97.6549C94.3884 97.6537 94.5 97.6845 94.5968 97.7438C94.6937 97.8031 94.7719 97.8886 94.8225 97.9903C94.8694 98.0243 94.8856 98.1523 94.8743 98.3597C94.8516 98.7011 94.9926 99.4832 95.2972 100.706L95.7396 102.65C95.8248 102.969 95.8834 103.294 95.9146 103.623C95.9146 103.694 95.7655 103.803 95.4657 103.947C95.166 104.091 94.9926 104.125 94.9456 104.044C93.9734 102.339 92.7478 101.164 91.269 100.516C89.7901 99.8694 87.9499 99.5453 85.7484 99.5442C83.6619 99.5151 81.6041 100.032 79.7789 101.043C78.037 102.009 76.6107 103.457 75.6713 105.214C74.7066 106.995 74.2243 109.015 74.2243 111.272C74.2406 112.824 74.5892 114.354 75.2468 115.759C75.8988 117.225 76.7897 118.572 77.8831 119.745C78.9592 120.891 80.2277 121.84 81.631 122.549C82.941 123.241 84.3979 123.61 85.8796 123.623Z" fill="#427D9D"/>
<path id="Vector_9" d="M102.407 99.6917L102.425 99.3676C102.425 99.3336 102.497 99.2574 102.637 99.1391L105.812 96.7928C105.935 96.7456 106.068 96.7278 106.199 96.741C106.35 96.7283 106.502 96.7557 106.64 96.8204C106.722 96.8722 106.763 97.0294 106.763 97.287V110.671C107.164 110.437 107.464 110.267 107.664 110.161L108.21 109.879C109.868 109.056 111.405 108.644 112.822 108.644C114.238 108.644 115.634 109.15 117.01 110.161C117.624 110.61 118.142 111.176 118.535 111.827C118.916 112.438 119.121 113.143 119.125 113.863V122.541C119.125 122.599 119.125 122.725 119.117 122.92C119.108 123.046 119.111 123.173 119.125 123.299C119.207 124.055 119.457 124.516 119.875 124.683C120.293 124.845 120.5 125.007 120.5 125.133C120.5 125.457 120.424 125.619 120.272 125.619H115.075C114.923 125.619 114.847 125.514 114.847 125.295C114.847 125.076 114.894 124.948 114.988 124.89C115.106 124.82 115.23 124.761 115.359 124.713C115.497 124.664 115.623 124.586 115.728 124.485C115.825 124.386 115.911 124.278 115.984 124.161C116.064 124.038 116.119 123.9 116.147 123.756C116.17 123.642 116.188 123.527 116.198 123.411C116.198 123.334 116.198 123.185 116.198 122.962C116.198 122.738 116.19 122.591 116.19 122.521V114.311C116.199 113.618 115.94 112.949 115.468 112.442C114.573 111.47 113.312 110.984 111.684 110.984C110.056 110.984 108.419 111.396 106.773 112.219V122.553C106.773 122.612 106.773 122.738 106.773 122.933C106.773 123.127 106.773 123.257 106.773 123.312C106.867 124.068 107.122 124.529 107.539 124.696C107.956 124.862 108.165 125.012 108.165 125.146C108.165 125.47 108.088 125.632 107.936 125.632H102.714C102.561 125.632 102.485 125.527 102.485 125.308C102.485 125.089 102.532 124.961 102.626 124.903C102.744 124.833 102.868 124.774 102.996 124.726C103.127 124.682 103.247 124.61 103.349 124.516C103.519 124.36 103.654 124.17 103.747 123.959C103.84 123.748 103.887 123.52 103.887 123.289C103.887 122.837 103.887 122.587 103.887 122.541V101.139C103.887 100.763 103.792 100.493 103.603 100.328C103.439 100.175 103.228 100.081 103.004 100.064C102.856 100.07 102.709 100.034 102.581 99.959C102.531 99.9341 102.488 99.8961 102.457 99.8491C102.427 99.8021 102.41 99.7477 102.407 99.6917Z" fill="#427D9D"/>
<path id="Vector_10" d="M125.851 118.809C126.32 120.149 127.219 121.296 128.408 122.071C129.624 122.863 131.048 123.274 132.499 123.252C134.444 123.252 136.213 122.341 137.808 120.518C138.054 120.284 138.418 120.408 138.9 120.889C138.935 120.925 138.931 120.977 138.884 121.051C137.542 122.908 136.501 124.097 135.761 124.616C134.49 125.511 132.967 125.978 131.412 125.95C130.298 125.949 129.195 125.722 128.171 125.281C126.011 124.34 124.473 122.835 123.558 120.766C123.088 119.709 122.853 118.453 122.853 117C122.858 115.531 123.237 114.086 123.955 112.804C124.69 111.457 125.798 110.351 127.147 109.62C128.541 108.845 130.143 108.457 131.953 108.456C134.163 108.456 136.127 109.479 137.843 111.525C138.707 112.559 139.14 113.382 139.14 113.993L125.851 118.809ZM135.463 113.377C134.769 111.391 133.271 110.397 130.966 110.396C129.947 110.388 128.948 110.68 128.092 111.234C127.252 111.76 126.562 112.495 126.091 113.368C125.626 114.232 125.394 115.046 125.394 115.809C125.394 116.573 125.418 116.951 125.465 116.944L135.429 113.47V113.364L135.463 113.377Z" fill="#427D9D"/>
<path id="Vector_11" d="M152.514 101.474L152.655 100.45C152.655 100.216 152.473 99.9131 152.109 99.5426C151.924 99.3571 151.702 99.212 151.457 99.1163C151.213 99.0207 150.952 98.9766 150.69 98.9868C150.035 99.0086 149.397 99.2068 148.846 99.5604C148.187 99.9522 147.601 100.453 147.11 101.041C146.575 101.685 146.149 102.412 145.848 103.193C145.528 103.986 145.363 104.833 145.362 105.689V108.827H152.185C152.668 108.827 152.968 108.903 153.085 109.056V110.608C152.956 110.76 152.656 110.837 152.185 110.837H145.355V123.313C145.367 123.594 145.442 123.868 145.576 124.115C145.715 124.41 145.96 124.642 146.263 124.764C146.574 124.893 146.731 125.023 146.731 125.153C146.731 125.477 146.653 125.639 146.501 125.639H141.296C141.142 125.639 141.066 125.533 141.066 125.315C141.066 125.096 141.116 124.968 141.217 124.909C141.336 124.842 141.459 124.783 141.586 124.733C141.718 124.684 141.838 124.609 141.94 124.512C142.03 124.422 142.11 124.321 142.178 124.213C142.237 124.122 142.291 124.028 142.34 123.931C142.382 123.823 142.409 123.71 142.419 123.595C142.437 123.45 142.448 123.349 142.453 123.296C142.46 123.173 142.46 123.049 142.453 122.926C142.453 122.732 142.453 122.602 142.453 122.547V110.833H141.377C140.907 110.833 140.608 110.757 140.478 110.605V109.051C140.595 108.899 140.894 108.822 141.377 108.822H142.453V104.823C142.453 103.39 143 101.926 144.093 100.432C145.108 99.0092 146.516 97.9124 148.144 97.2757C149.004 96.9395 149.919 96.7664 150.842 96.7653C151.721 96.7491 152.594 96.9134 153.407 97.2478C154.22 97.5822 154.955 98.0798 155.569 98.7097C155.875 99.0338 155.887 99.3336 155.604 99.609L153.24 101.795C153.159 101.866 153.016 101.863 152.817 101.787C152.618 101.711 152.514 101.597 152.514 101.474Z" fill="#427D9D"/>
</g>
</svg>
